<?xml version="1.0" encoding="UTF-8"?>
<svg id="Layer_2" data-name="Layer 2" xmlns="http://www.w3.org/2000/svg" viewBox="0 0 716.5 395.2">
  <defs>
    <style>
      .cls-1 {
        fill: #fff;
      }
    </style>
  </defs>
  <g id="Layer_1-2" data-name="Layer 1-2">
    <g>
      <g id="g3015">
        <g id="g3021">
          <path id="path3023" class="cls-1" d="m112.8,73.1c0-20.4-16.4-36.7-36.4-36.7h-18.1v73.2h18.1c20,0,36.4-16.4,36.4-36.4m82.1,145.9h-66.3l-52.6-73h-17.7v72.8H0V0h83.7c48.2,0,87.6,32.8,87.6,73.1s-15.1,46.6-38.1,60l61.8,85.8"/>
        </g>
        <g id="g3025">
          <path id="path3027" class="cls-1" d="m260.8,86.3c-15.4,0-28.5,21-28.5,46.9s13.1,46.9,28.5,46.9,28.9-21,28.9-46.9-13.1-46.9-28.9-46.9m89.9,46.9c0,49.6-40.3,89.3-89.9,89.3s-89.6-39.7-89.6-89.3,40-89.2,89.6-89.2,89.9,39.7,89.9,89.2"/>
        </g>
        <g id="g3029">
          <path id="path3031" class="cls-1" d="m487.7,47.6l-67.3,67.3V47.3h-58.4v171.5h58.4v-69.6l70.2,69.6h73.5l-89.2-89.3,73.9-73.9v101.8c0,33.8,20.3,65,71.5,65s46.6-13.8,57.4-26.2l26.3,22.6h12.5V47.6h-58.4v110.9c-6.6,11.5-15.7,18.7-29.9,18.7s-21-8.5-21-35.8V47.6h-119.5Z"/>
        </g>
      </g>
      <g>
        <path class="cls-1" d="m193.1,391.4v-142.9h29.7v64.7l46.3-64.7h34.4l-49.7,65.1,51.5,77.8h-35.8l-46.7-74.8v74.8h-29.7Z"/>
        <path class="cls-1" d="m320.8,256.3c0-4.4,1.6-8.2,4.7-11.4s6.8-4.8,11.1-4.8,8.1,1.6,11.2,4.7c3.1,3.2,4.7,7,4.7,11.5s-1.6,8.3-4.7,11.5-6.9,4.8-11.2,4.8-8-1.6-11.1-4.9-4.7-7.1-4.7-11.4Zm2.4,135.1v-95.7h27v95.7h-27Z"/>
        <path class="cls-1" d="m481,343.9c0,14.7-4.9,26.9-14.7,36.7s-22.2,14.6-37.2,14.6-27.6-4.9-37.4-14.6c-9.8-9.8-14.7-22-14.7-36.7s4.9-26.9,14.8-36.7c9.9-9.8,22.3-14.7,37.3-14.7s27.5,4.8,37.2,14.5,14.6,22,14.6,36.9h.1Zm-27.5-.2c0-7.8-2.2-14-6.6-18.7s-10.4-7-17.8-7-13.4,2.3-17.8,6.9-6.5,10.9-6.5,18.7,2.2,14.1,6.5,18.7c4.4,4.7,10.3,7,17.8,7s13.3-2.3,17.8-7,6.7-10.9,6.7-18.7l-.1.1Z"/>
        <path class="cls-1" d="m506.8,240.1h27.1v97.9l34.6-42.4h32.5l-37.5,42.4,41.2,53.4h-33.4l-37.3-50.8v50.8h-27.1v-151.3h-.1Z"/>
        <path class="cls-1" d="m648.6,295.7v50.4c0,8.5,1.6,14.5,4.8,18.2,3.2,3.6,8.4,5.5,15.6,5.5s12.3-1.8,15.6-5.5c3.2-3.7,4.8-9.7,4.8-18.1v-50.4h27.1v50.4c0,16.9-3.8,29.3-11.5,37.2-7.7,8-19.5,12-35.6,12s-28.4-4-36.1-11.9c-7.7-7.9-11.5-20.4-11.5-37.3v-50.4h26.9l-.1-.1Z"/>
        <rect class="cls-1" x="426" y="342.1" width="15" height="5"/>
        <rect class="cls-1" x="426" y="324.9" width="5" height="18"/>
      </g>
    </g>
  </g>
</svg>